<svg width="200" height="29" viewBox="0 0 200 29" fill="none" xmlns="http://www.w3.org/2000/svg">
<path d="M6.64579 14.518L3.32289 17.7881L0 14.518L3.32289 11.2478L6.64579 14.518ZM14.7522 6.54027L20.4486 12.1822L23.7715 8.91202L18.0751 3.27014L14.7522 0L11.4293 3.27014L5.69639 8.91202L9.01928 12.1822L14.7522 6.54027ZM26.1815 11.2478L22.8586 14.518L26.1815 17.7881L29.5044 14.518L26.1815 11.2478ZM14.7522 22.4597L9.0558 16.8538L5.69639 20.1239L11.3928 25.7299L14.7157 29L18.0386 25.7299L23.7715 20.1239L20.4486 16.8538L14.7522 22.4597ZM14.7522 17.7881L18.0751 14.518L14.7522 11.2478L11.4293 14.518L14.7522 17.7881ZM49.9164 18.1115V18.0756C49.9164 15.9554 48.7479 14.8773 46.8857 14.1586C48.0541 13.5118 49.0035 12.5056 49.0035 10.7088V10.6729C49.0035 8.15737 46.9587 6.54027 43.6723 6.54027H36.1502V22.4597H43.8549C47.5064 22.4597 49.9164 21.0223 49.9164 18.1115ZM45.4616 11.3197C45.4616 12.5056 44.4757 13.0087 42.9055 13.0087H39.6191V9.63073H43.1246C44.6217 9.63073 45.4616 10.2057 45.4616 11.2838V11.3197ZM46.3744 17.6803C46.3744 18.8662 45.425 19.4052 43.8549 19.4052H39.6191V15.9195H43.7453C45.5711 15.9195 46.3744 16.5663 46.3744 17.6444V17.6803ZM57.3656 22.4597V6.54027H53.8236V22.4597H57.3656ZM76.4996 22.4597V6.54027H72.9941V16.3507L65.3989 6.54027H62.1125V22.4597H65.618V12.3618L73.4688 22.4957H76.4996V22.4597ZM96.2178 22.4597L89.2799 6.43247H85.9936L79.0556 22.4597H82.6707L84.1678 18.9021H90.9962L92.4933 22.4597H96.2178ZM89.7546 15.8116H85.4458L87.6002 10.6369L89.7546 15.8116ZM113.161 22.4597V6.54027H109.655V16.3507L102.06 6.54027H98.7739V22.4597H102.279V12.3618L110.13 22.4957H113.161V22.4597ZM131.565 19.9083L129.301 17.6444C128.023 18.7943 126.891 19.513 125.065 19.513C122.29 19.513 120.391 17.2491 120.391 14.518V14.482C120.391 11.7509 122.363 9.52292 125.065 9.52292C126.672 9.52292 127.95 10.2057 129.191 11.3197L131.455 8.73234C129.958 7.25898 128.132 6.28872 125.065 6.28872C120.099 6.28872 116.63 9.99009 116.63 14.518V14.5539C116.63 19.1177 120.172 22.7472 124.919 22.7472C128.023 22.7472 129.885 21.6691 131.565 19.9083ZM146.719 22.4597V19.3333H137.955V15.9913H145.587V12.8649H137.955V9.63073H146.609V6.50434H134.413V22.4238H146.719V22.4597Z" fill="#F0B90B"/>
<path d="M169.268 11.8784C169.268 8.63587 166.912 6.54978 163.183 6.54978H156.869V22.4222H159.683V17.3204H162.863C166.386 17.3204 169.268 15.461 169.268 11.8784ZM166.409 11.9464C166.409 13.647 165.082 14.8035 162.954 14.8035H159.683V9.08937H162.954C165.059 9.08937 166.409 10.0644 166.409 11.9464Z" fill="#1E2026"/>
<path d="M178.823 6.4364H176.215L169.169 22.4222H172.052L173.699 18.5902H181.271L182.895 22.4222H185.869L178.823 6.4364ZM180.241 16.1186H174.728L177.473 9.76962L180.241 16.1186Z" fill="#1E2026"/>
<path d="M193.64 16.0959L200 6.54978H196.774L192.245 13.579L187.761 6.54978H184.444L190.803 16.164V22.4222H193.64V16.0959Z" fill="#1E2026"/>
</svg>
